<svg xmlns="http://www.w3.org/2000/svg" width="49.727" height="49.735" viewBox="0 0 49.727 49.735">
    <g data-name="Group 26240">
        <path data-name="Path 26201" d="M48.7 492.137H1.106a1.069 1.069 0 0 1 0-2.137H48.7a1.069 1.069 0 0 1 0 2.137z" transform="translate(-.037 -442.402)" style="fill:#5f449b"/>
    </g>
    <g data-name="Group 26241">
        <path data-name="Path 26202" d="M260.706 346.8a1.075 1.075 0 0 1-.944-1.568c.1-.2 2.643-4.822 10.32-3.669a7.231 7.231 0 0 0 8.05-4.61 1.069 1.069 0 0 1 2.019.7 10.245 10.245 0 0 1-2.223 3.449 8.837 8.837 0 0 1-6.482 2.7 11.319 11.319 0 0 1-1.68-.129c-6.2-.929-8.1 2.52-8.114 2.555a1.069 1.069 0 0 1-.946.572z" transform="translate(-234.418 -303.58)" style="fill:#5f449b"/>
    </g>
    <path data-name="Path 26203" d="M82.188 28.349h-8.219v-16.92a1.069 1.069 0 0 0-1.069-1.068h-2V5.7a1.069 1.069 0 0 0-1.069-1.069h-4.98V1.069a1.069 1.069 0 1 0-2.137 0v3.563h-4.976A1.069 1.069 0 0 0 56.669 5.7v4.66h-2a1.069 1.069 0 0 0-1.069 1.069v5H42.561a1.069 1.069 0 0 0-1.069 1.071v31.166a1.069 1.069 0 0 0 2.137 0V18.57H53.6v30.1a1.069 1.069 0 1 0 2.137 0V12.5h2a1.069 1.069 0 0 0 1.069-1.069V6.769h9.959v4.66a1.069 1.069 0 0 0 1.069 1.071h2v15.849h-8.08a1.069 1.069 0 0 0-1.069 1.069v19.248a1.069 1.069 0 0 0 2.137 0v-18.18h16.3v18.18a1.069 1.069 0 1 0 2.137 0V29.417a1.068 1.068 0 0 0-1.071-1.068z" transform="translate(-37.465)" style="fill:#5f449b"/>
    <g data-name="Group 26242">
        <path data-name="Path 26204" d="M104.154 251.37a1.069 1.069 0 0 1-1.069-1.069V224.4a1.069 1.069 0 1 1 2.137 0v25.9a1.069 1.069 0 0 1-1.068 1.07z" transform="translate(-93.075 -201.635)" style="fill:#5f449b"/>
    </g>
    <g data-name="Group 26243">
        <path data-name="Path 26205" d="M261.036 105.525a1.068 1.068 0 1 1 .986-1.476 1.075 1.075 0 0 1-.986 1.476z" transform="translate(-234.715 -93.351)" style="fill:#5f449b"/>
    </g>
    <g data-name="Group 26246">
        <g data-name="Group 26244">
            <path data-name="Path 26206" d="M232.883 164.25a1.068 1.068 0 1 1 .888-1.661 1.073 1.073 0 0 1-.888 1.661z" transform="translate(-209.3 -146.372)" style="fill:#5f449b"/>
        </g>
        <g data-name="Group 26245">
            <path data-name="Path 26207" d="M289.238 164.235a1.068 1.068 0 1 1 .986-1.477 1.073 1.073 0 0 1-.986 1.477z" transform="translate(-260.18 -146.358)" style="fill:#5f449b"/>
        </g>
    </g>
    <g data-name="Group 26249">
        <g data-name="Group 26247">
            <path data-name="Path 26208" d="M232.858 222.3a1.068 1.068 0 1 1 .987-1.477 1.077 1.077 0 0 1-.987 1.477z" transform="translate(-209.274 -198.786)" style="fill:#5f449b"/>
        </g>
        <g data-name="Group 26248">
            <path data-name="Path 26209" d="M289.238 222.3a1.068 1.068 0 1 1 .888-1.662 1.074 1.074 0 0 1-.888 1.662z" transform="translate(-260.18 -198.786)" style="fill:#5f449b"/>
        </g>
    </g>
</svg>
